<svg width="421" height="446" viewBox="0 0 421 446" fill="none" xmlns="http://www.w3.org/2000/svg">
<path d="M325.781 136.299C311.047 113.441 289.866 95.465 264.916 84.6447C239.966 73.8243 212.368 70.6454 185.611 75.51C158.855 80.3747 134.141 93.0643 114.597 111.974C95.0522 130.884 81.5539 155.165 75.8089 181.747L210.207 210.794L325.781 136.299Z" fill="#63AB83"/>
<path d="M76.1133 181.56C71.3613 203.668 72.1348 226.606 78.3653 248.343C84.5957 270.08 96.0908 289.945 111.832 306.178C127.574 322.411 147.076 334.512 168.611 341.408C190.146 348.304 213.049 349.782 235.292 345.712C257.535 341.643 278.431 332.15 296.129 318.075C313.827 304.001 327.781 285.779 336.755 265.023C345.728 244.268 349.445 221.62 347.575 199.085C345.705 176.55 338.306 154.824 326.034 135.832L210.544 210.456L76.1133 181.56Z" fill="#92E3A9"/>
<path d="M177.996 289.288C176.828 289.288 175.668 289.136 174.516 288.832C173.38 288.512 172.404 288.064 171.588 287.488L173.124 284.512C173.764 284.976 174.5 285.344 175.332 285.616C176.18 285.888 177.036 286.024 177.9 286.024C178.876 286.024 179.644 285.832 180.204 285.448C180.764 285.064 181.044 284.528 181.044 283.84C181.044 283.408 180.932 283.024 180.708 282.688C180.484 282.352 180.084 282.096 179.508 281.92C178.948 281.744 178.156 281.656 177.132 281.656H172.836L173.7 272.2H183.948V275.32H175.092L177.108 273.544L176.508 280.288L174.492 278.512H178.044C179.708 278.512 181.044 278.744 182.052 279.208C183.076 279.656 183.82 280.272 184.284 281.056C184.748 281.84 184.98 282.728 184.98 283.72C184.98 284.712 184.732 285.632 184.236 286.48C183.74 287.312 182.972 287.992 181.932 288.52C180.908 289.032 179.596 289.288 177.996 289.288ZM188.964 289L195.732 273.688L196.74 275.368H187.692L189.42 273.544V278.104H185.964V272.2H199.428V274.72L193.188 289H188.964ZM202.218 289.192C201.578 289.192 201.026 288.976 200.562 288.544C200.114 288.096 199.89 287.528 199.89 286.84C199.89 286.152 200.114 285.6 200.562 285.184C201.026 284.752 201.578 284.536 202.218 284.536C202.874 284.536 203.426 284.752 203.874 285.184C204.322 285.6 204.546 286.152 204.546 286.84C204.546 287.528 204.322 288.096 203.874 288.544C203.426 288.976 202.874 289.192 202.218 289.192ZM211.974 289.288C210.806 289.288 209.646 289.136 208.494 288.832C207.342 288.512 206.366 288.064 205.566 287.488L207.078 284.512C207.718 284.976 208.462 285.344 209.31 285.616C210.158 285.888 211.014 286.024 211.878 286.024C212.854 286.024 213.622 285.832 214.182 285.448C214.742 285.064 215.022 284.536 215.022 283.864C215.022 283.224 214.774 282.72 214.278 282.352C213.782 281.984 212.982 281.8 211.878 281.8H210.102V279.232L214.782 273.928L215.214 275.32H206.406V272.2H218.166V274.72L213.51 280.024L211.542 278.896H212.67C214.734 278.896 216.294 279.36 217.35 280.288C218.406 281.216 218.934 282.408 218.934 283.864C218.934 284.808 218.686 285.696 218.19 286.528C217.694 287.344 216.934 288.008 215.91 288.52C214.886 289.032 213.574 289.288 211.974 289.288ZM228.241 289.288C226.705 289.288 225.369 288.968 224.233 288.328C223.113 287.688 222.249 286.752 221.641 285.52C221.033 284.288 220.729 282.768 220.729 280.96C220.729 279.024 221.089 277.384 221.809 276.04C222.545 274.696 223.553 273.672 224.833 272.968C226.129 272.264 227.617 271.912 229.297 271.912C230.193 271.912 231.049 272.008 231.865 272.2C232.681 272.392 233.385 272.68 233.977 273.064L232.537 275.92C232.073 275.6 231.577 275.384 231.049 275.272C230.521 275.144 229.969 275.08 229.393 275.08C227.937 275.08 226.785 275.52 225.937 276.4C225.089 277.28 224.665 278.584 224.665 280.312C224.665 280.6 224.665 280.92 224.665 281.272C224.681 281.624 224.729 281.976 224.809 282.328L223.729 281.32C224.033 280.696 224.425 280.176 224.905 279.76C225.385 279.328 225.953 279.008 226.609 278.8C227.281 278.576 228.017 278.464 228.817 278.464C229.905 278.464 230.881 278.68 231.745 279.112C232.609 279.544 233.297 280.152 233.809 280.936C234.337 281.72 234.601 282.64 234.601 283.696C234.601 284.832 234.313 285.824 233.737 286.672C233.177 287.504 232.417 288.152 231.457 288.616C230.513 289.064 229.441 289.288 228.241 289.288ZM228.025 286.384C228.569 286.384 229.049 286.288 229.465 286.096C229.897 285.888 230.233 285.592 230.473 285.208C230.713 284.824 230.833 284.384 230.833 283.888C230.833 283.12 230.569 282.512 230.041 282.064C229.529 281.6 228.841 281.368 227.977 281.368C227.401 281.368 226.897 281.48 226.465 281.704C226.033 281.912 225.689 282.208 225.433 282.592C225.193 282.96 225.073 283.392 225.073 283.888C225.073 284.368 225.193 284.8 225.433 285.184C225.673 285.552 226.009 285.848 226.441 286.072C226.873 286.28 227.401 286.384 228.025 286.384ZM237.965 289L249.437 272.2H252.293L240.821 289H237.965ZM239.429 281.272C238.613 281.272 237.893 281.088 237.269 280.72C236.645 280.336 236.149 279.8 235.781 279.112C235.429 278.408 235.253 277.584 235.253 276.64C235.253 275.696 235.429 274.88 235.781 274.192C236.149 273.504 236.645 272.968 237.269 272.584C237.893 272.2 238.613 272.008 239.429 272.008C240.245 272.008 240.965 272.2 241.589 272.584C242.213 272.968 242.701 273.504 243.053 274.192C243.405 274.88 243.581 275.696 243.581 276.64C243.581 277.584 243.405 278.408 243.053 279.112C242.701 279.8 242.213 280.336 241.589 280.72C240.965 281.088 240.245 281.272 239.429 281.272ZM239.429 279.304C239.957 279.304 240.381 279.088 240.701 278.656C241.021 278.208 241.181 277.536 241.181 276.64C241.181 275.744 241.021 275.08 240.701 274.648C240.381 274.2 239.957 273.976 239.429 273.976C238.917 273.976 238.493 274.2 238.157 274.648C237.837 275.08 237.677 275.744 237.677 276.64C237.677 277.52 237.837 278.184 238.157 278.632C238.493 279.08 238.917 279.304 239.429 279.304ZM250.829 289.192C250.029 289.192 249.309 289.008 248.669 288.64C248.045 288.256 247.557 287.72 247.205 287.032C246.853 286.328 246.677 285.504 246.677 284.56C246.677 283.616 246.853 282.8 247.205 282.112C247.557 281.424 248.045 280.888 248.669 280.504C249.309 280.12 250.029 279.928 250.829 279.928C251.661 279.928 252.389 280.12 253.013 280.504C253.637 280.888 254.125 281.424 254.477 282.112C254.829 282.8 255.005 283.616 255.005 284.56C255.005 285.504 254.829 286.328 254.477 287.032C254.125 287.72 253.637 288.256 253.013 288.64C252.389 289.008 251.661 289.192 250.829 289.192ZM250.829 287.224C251.357 287.224 251.781 287.008 252.101 286.576C252.421 286.128 252.581 285.456 252.581 284.56C252.581 283.68 252.421 283.016 252.101 282.568C251.781 282.12 251.357 281.896 250.829 281.896C250.317 281.896 249.893 282.12 249.557 282.568C249.237 283 249.077 283.664 249.077 284.56C249.077 285.456 249.237 286.128 249.557 286.576C249.893 287.008 250.317 287.224 250.829 287.224Z" fill="#FEFEFE"/>
<path d="M171.662 146.112V143.971L178.144 135.25H181.483L175.139 143.971L173.587 143.52H184.41V146.112H171.662ZM179.067 149V146.112L179.165 143.52V140.946H182.171V149H179.067ZM185.244 149V146.937L190.548 141.928C190.967 141.549 191.275 141.208 191.471 140.907C191.667 140.606 191.798 140.331 191.864 140.082C191.942 139.833 191.982 139.604 191.982 139.395C191.982 138.845 191.792 138.425 191.412 138.137C191.045 137.836 190.502 137.686 189.782 137.686C189.205 137.686 188.669 137.797 188.171 138.02C187.686 138.242 187.274 138.589 186.933 139.061L184.616 137.568C185.139 136.782 185.873 136.16 186.816 135.702C187.758 135.243 188.845 135.014 190.076 135.014C191.098 135.014 191.988 135.184 192.748 135.525C193.52 135.852 194.116 136.317 194.535 136.92C194.967 137.522 195.183 138.242 195.183 139.08C195.183 139.525 195.125 139.971 195.007 140.416C194.902 140.848 194.679 141.306 194.339 141.791C194.011 142.276 193.527 142.819 192.885 143.421L188.485 147.566L187.876 146.407H195.635V149H185.244ZM198.947 149.157C198.423 149.157 197.972 148.98 197.592 148.627C197.225 148.26 197.042 147.795 197.042 147.232C197.042 146.669 197.225 146.217 197.592 145.877C197.972 145.523 198.423 145.346 198.947 145.346C199.484 145.346 199.936 145.523 200.303 145.877C200.669 146.217 200.853 146.669 200.853 147.232C200.853 147.795 200.669 148.26 200.303 148.627C199.936 148.98 199.484 149.157 198.947 149.157ZM208.18 149.236C206.923 149.236 205.829 148.974 204.9 148.45C203.983 147.926 203.276 147.16 202.778 146.152C202.281 145.143 202.032 143.899 202.032 142.42C202.032 140.835 202.326 139.493 202.916 138.393C203.518 137.293 204.343 136.455 205.391 135.878C206.451 135.302 207.669 135.014 209.044 135.014C209.778 135.014 210.478 135.093 211.146 135.25C211.814 135.407 212.39 135.643 212.875 135.957L211.696 138.295C211.316 138.033 210.91 137.856 210.478 137.764C210.046 137.659 209.594 137.607 209.123 137.607C207.931 137.607 206.988 137.967 206.294 138.687C205.6 139.408 205.253 140.475 205.253 141.889C205.253 142.125 205.253 142.387 205.253 142.675C205.266 142.963 205.306 143.251 205.371 143.539L204.487 142.714C204.736 142.203 205.057 141.778 205.45 141.437C205.842 141.084 206.307 140.822 206.844 140.652C207.394 140.468 207.997 140.377 208.651 140.377C209.542 140.377 210.341 140.553 211.048 140.907C211.755 141.261 212.318 141.758 212.737 142.4C213.169 143.042 213.385 143.795 213.385 144.659C213.385 145.589 213.15 146.401 212.678 147.095C212.22 147.776 211.598 148.306 210.812 148.686C210.04 149.052 209.162 149.236 208.18 149.236ZM208.003 146.859C208.448 146.859 208.841 146.78 209.182 146.623C209.535 146.453 209.81 146.211 210.007 145.896C210.203 145.582 210.301 145.222 210.301 144.816C210.301 144.187 210.085 143.69 209.653 143.323C209.234 142.943 208.671 142.754 207.964 142.754C207.492 142.754 207.08 142.845 206.726 143.029C206.373 143.199 206.091 143.441 205.882 143.755C205.685 144.056 205.587 144.41 205.587 144.816C205.587 145.209 205.685 145.562 205.882 145.877C206.078 146.178 206.353 146.42 206.707 146.604C207.06 146.774 207.492 146.859 208.003 146.859ZM214.382 146.112V143.971L220.864 135.25H224.203L217.858 143.971L216.307 143.52H227.13V146.112H214.382ZM221.787 149V146.112L221.885 143.52V140.946H224.891V149H221.787ZM229.471 149L238.86 135.25H241.198L231.809 149H229.471ZM230.669 142.675C230.001 142.675 229.412 142.524 228.901 142.223C228.391 141.909 227.985 141.47 227.684 140.907C227.395 140.331 227.251 139.656 227.251 138.884C227.251 138.111 227.395 137.443 227.684 136.88C227.985 136.317 228.391 135.878 228.901 135.564C229.412 135.25 230.001 135.093 230.669 135.093C231.337 135.093 231.926 135.25 232.437 135.564C232.948 135.878 233.347 136.317 233.635 136.88C233.924 137.443 234.068 138.111 234.068 138.884C234.068 139.656 233.924 140.331 233.635 140.907C233.347 141.47 232.948 141.909 232.437 142.223C231.926 142.524 231.337 142.675 230.669 142.675ZM230.669 141.064C231.101 141.064 231.448 140.887 231.71 140.534C231.972 140.167 232.103 139.617 232.103 138.884C232.103 138.15 231.972 137.607 231.71 137.253C231.448 136.887 231.101 136.703 230.669 136.703C230.25 136.703 229.903 136.887 229.628 137.253C229.366 137.607 229.235 138.15 229.235 138.884C229.235 139.604 229.366 140.148 229.628 140.514C229.903 140.881 230.25 141.064 230.669 141.064ZM240 149.157C239.345 149.157 238.756 149.007 238.232 148.705C237.721 148.391 237.322 147.952 237.034 147.389C236.746 146.813 236.602 146.139 236.602 145.366C236.602 144.593 236.746 143.926 237.034 143.362C237.322 142.799 237.721 142.361 238.232 142.046C238.756 141.732 239.345 141.575 240 141.575C240.681 141.575 241.277 141.732 241.787 142.046C242.298 142.361 242.697 142.799 242.986 143.362C243.274 143.926 243.418 144.593 243.418 145.366C243.418 146.139 243.274 146.813 242.986 147.389C242.697 147.952 242.298 148.391 241.787 148.705C241.277 149.007 240.681 149.157 240 149.157ZM240 147.546C240.432 147.546 240.779 147.37 241.041 147.016C241.303 146.649 241.434 146.099 241.434 145.366C241.434 144.646 241.303 144.102 241.041 143.736C240.779 143.369 240.432 143.186 240 143.186C239.581 143.186 239.234 143.369 238.959 143.736C238.697 144.089 238.566 144.633 238.566 145.366C238.566 146.099 238.697 146.649 238.959 147.016C239.234 147.37 239.581 147.546 240 147.546Z" fill="#FEFEFE"/>
<path d="M159.379 37H161.379V49.26H168.959V51H159.379V37ZM177.32 51.16C175.907 51.16 174.634 50.8533 173.5 50.24C172.367 49.6133 171.474 48.7533 170.82 47.66C170.18 46.5667 169.86 45.3467 169.86 44C169.86 42.6533 170.18 41.4333 170.82 40.34C171.474 39.2467 172.367 38.3933 173.5 37.78C174.634 37.1533 175.907 36.84 177.32 36.84C178.72 36.84 179.987 37.1533 181.12 37.78C182.254 38.3933 183.14 39.2467 183.78 40.34C184.42 41.42 184.74 42.64 184.74 44C184.74 45.36 184.42 46.5867 183.78 47.68C183.14 48.76 182.254 49.6133 181.12 50.24C179.987 50.8533 178.72 51.16 177.32 51.16ZM177.32 49.38C178.347 49.38 179.267 49.1467 180.08 48.68C180.907 48.2133 181.554 47.5733 182.02 46.76C182.5 45.9333 182.74 45.0133 182.74 44C182.74 42.9867 182.5 42.0733 182.02 41.26C181.554 40.4333 180.907 39.7867 180.08 39.32C179.267 38.8533 178.347 38.62 177.32 38.62C176.294 38.62 175.36 38.8533 174.52 39.32C173.694 39.7867 173.04 40.4333 172.56 41.26C172.094 42.0733 171.86 42.9867 171.86 44C171.86 45.0133 172.094 45.9333 172.56 46.76C173.04 47.5733 173.694 48.2133 174.52 48.68C175.36 49.1467 176.294 49.38 177.32 49.38ZM194.057 51.16C192.657 51.16 191.391 50.8533 190.257 50.24C189.137 49.6133 188.257 48.76 187.617 47.68C186.977 46.5867 186.657 45.36 186.657 44C186.657 42.64 186.977 41.42 187.617 40.34C188.257 39.2467 189.144 38.3933 190.277 37.78C191.411 37.1533 192.677 36.84 194.077 36.84C195.171 36.84 196.171 37.0267 197.077 37.4C197.984 37.76 198.757 38.3 199.397 39.02L198.097 40.28C197.044 39.1733 195.731 38.62 194.157 38.62C193.117 38.62 192.177 38.8533 191.337 39.32C190.497 39.7867 189.837 40.4333 189.357 41.26C188.891 42.0733 188.657 42.9867 188.657 44C188.657 45.0133 188.891 45.9333 189.357 46.76C189.837 47.5733 190.497 48.2133 191.337 48.68C192.177 49.1467 193.117 49.38 194.157 49.38C195.717 49.38 197.031 48.82 198.097 47.7L199.397 48.96C198.757 49.68 197.977 50.2267 197.057 50.6C196.151 50.9733 195.151 51.16 194.057 51.16ZM210.838 47.5H203.398L201.858 51H199.798L206.138 37H208.118L214.478 51H212.378L210.838 47.5ZM210.138 45.9L207.118 39.04L204.098 45.9H210.138ZM218.644 38.74H213.844V37H225.424V38.74H220.624V51H218.644V38.74ZM227.602 37H229.602V51H227.602V37ZM240.113 51.16C238.7 51.16 237.427 50.8533 236.293 50.24C235.16 49.6133 234.267 48.7533 233.613 47.66C232.973 46.5667 232.653 45.3467 232.653 44C232.653 42.6533 232.973 41.4333 233.613 40.34C234.267 39.2467 235.16 38.3933 236.293 37.78C237.427 37.1533 238.7 36.84 240.113 36.84C241.513 36.84 242.78 37.1533 243.913 37.78C245.047 38.3933 245.933 39.2467 246.573 40.34C247.213 41.42 247.533 42.64 247.533 44C247.533 45.36 247.213 46.5867 246.573 47.68C245.933 48.76 245.047 49.6133 243.913 50.24C242.78 50.8533 241.513 51.16 240.113 51.16ZM240.113 49.38C241.14 49.38 242.06 49.1467 242.873 48.68C243.7 48.2133 244.347 47.5733 244.813 46.76C245.293 45.9333 245.533 45.0133 245.533 44C245.533 42.9867 245.293 42.0733 244.813 41.26C244.347 40.4333 243.7 39.7867 242.873 39.32C242.06 38.8533 241.14 38.62 240.113 38.62C239.087 38.62 238.153 38.8533 237.313 39.32C236.487 39.7867 235.833 40.4333 235.353 41.26C234.887 42.0733 234.653 42.9867 234.653 44C234.653 45.0133 234.887 45.9333 235.353 46.76C235.833 47.5733 236.487 48.2133 237.313 48.68C238.153 49.1467 239.087 49.38 240.113 49.38ZM262.63 37V51H260.99L252.59 40.56V51H250.59V37H252.23L260.63 47.44V37H262.63Z" fill="#062515"/>
<rect width="16" height="16" transform="translate(138 389)" fill="#92E3A9"/>
<path d="M162.959 401.072C161.871 401.072 161.023 400.76 160.415 400.136C159.807 399.512 159.503 398.604 159.503 397.412V392.6H160.391V397.376C160.391 398.352 160.611 399.08 161.051 399.56C161.491 400.04 162.127 400.28 162.959 400.28C163.799 400.28 164.439 400.04 164.879 399.56C165.319 399.08 165.539 398.352 165.539 397.376V392.6H166.403V397.412C166.403 398.604 166.099 399.512 165.491 400.136C164.891 400.76 164.047 401.072 162.959 401.072ZM174.815 401L172.895 398.3C172.679 398.324 172.455 398.336 172.223 398.336H169.967V401H169.079V392.6H172.223C173.295 392.6 174.135 392.856 174.743 393.368C175.351 393.88 175.655 394.584 175.655 395.48C175.655 396.136 175.487 396.692 175.151 397.148C174.823 397.596 174.351 397.92 173.735 398.12L175.787 401H174.815ZM172.199 397.58C173.031 397.58 173.667 397.396 174.107 397.028C174.547 396.66 174.767 396.144 174.767 395.48C174.767 394.8 174.547 394.28 174.107 393.92C173.667 393.552 173.031 393.368 172.199 393.368H169.967V397.58H172.199ZM183.043 396.668C183.595 396.788 184.019 397.028 184.315 397.388C184.619 397.74 184.771 398.196 184.771 398.756C184.771 399.476 184.503 400.032 183.967 400.424C183.439 400.808 182.655 401 181.615 401H177.751V392.6H181.375C182.311 392.6 183.035 392.788 183.547 393.164C184.067 393.54 184.327 394.072 184.327 394.76C184.327 395.224 184.211 395.62 183.979 395.948C183.755 396.268 183.443 396.508 183.043 396.668ZM178.639 393.332V396.38H181.315C181.995 396.38 182.519 396.252 182.887 395.996C183.255 395.732 183.439 395.352 183.439 394.856C183.439 394.36 183.255 393.984 182.887 393.728C182.519 393.464 181.995 393.332 181.315 393.332H178.639ZM181.603 400.268C182.355 400.268 182.923 400.14 183.307 399.884C183.691 399.628 183.883 399.228 183.883 398.684C183.883 397.636 183.123 397.112 181.603 397.112H178.639V400.268H181.603ZM192.066 398.756H187.386L186.378 401H185.454L189.294 392.6H190.17L194.01 401H193.074L192.066 398.756ZM191.742 398.036L189.726 393.524L187.71 398.036H191.742ZM202.419 392.6V401H201.687L196.287 394.184V401H195.399V392.6H196.131L201.543 399.416V392.6H202.419Z" fill="#062515"/>
<rect width="16" height="16" transform="translate(220 389)" fill="#63AB83"/>
<path d="M247.346 401L245.426 398.3C245.21 398.324 244.986 398.336 244.754 398.336H242.498V401H241.61V392.6H244.754C245.826 392.6 246.666 392.856 247.274 393.368C247.882 393.88 248.186 394.584 248.186 395.48C248.186 396.136 248.018 396.692 247.682 397.148C247.354 397.596 246.882 397.92 246.266 398.12L248.318 401H247.346ZM244.73 397.58C245.562 397.58 246.198 397.396 246.638 397.028C247.078 396.66 247.298 396.144 247.298 395.48C247.298 394.8 247.078 394.28 246.638 393.92C246.198 393.552 245.562 393.368 244.73 393.368H242.498V397.58H244.73ZM253.666 401.072C252.578 401.072 251.73 400.76 251.122 400.136C250.514 399.512 250.21 398.604 250.21 397.412V392.6H251.098V397.376C251.098 398.352 251.318 399.08 251.758 399.56C252.198 400.04 252.834 400.28 253.666 400.28C254.506 400.28 255.146 400.04 255.586 399.56C256.026 399.08 256.246 398.352 256.246 397.376V392.6H257.11V397.412C257.11 398.604 256.806 399.512 256.198 400.136C255.598 400.76 254.754 401.072 253.666 401.072ZM265.522 401L263.602 398.3C263.386 398.324 263.162 398.336 262.93 398.336H260.674V401H259.786V392.6H262.93C264.002 392.6 264.842 392.856 265.45 393.368C266.058 393.88 266.362 394.584 266.362 395.48C266.362 396.136 266.194 396.692 265.858 397.148C265.53 397.596 265.058 397.92 264.442 398.12L266.494 401H265.522ZM262.906 397.58C263.738 397.58 264.374 397.396 264.814 397.028C265.254 396.66 265.474 396.144 265.474 395.48C265.474 394.8 265.254 394.28 264.814 393.92C264.374 393.552 263.738 393.368 262.906 393.368H260.674V397.58H262.906ZM273.726 398.756H269.046L268.038 401H267.114L270.954 392.6H271.83L275.67 401H274.734L273.726 398.756ZM273.402 398.036L271.386 393.524L269.37 398.036H273.402ZM277.059 392.6H277.947V400.232H282.651V401H277.059V392.6Z" fill="#062515"/>
<rect x="0.5" y="0.5" width="420" height="445" rx="3.5" stroke="#3D9363" stroke-opacity="0.5"/>
</svg>
