<svg width="421" height="446" viewBox="0 0 421 446" fill="none" xmlns="http://www.w3.org/2000/svg">
<path d="M325.781 136.299C311.047 113.441 289.866 95.465 264.916 84.6447C239.966 73.8243 212.368 70.6454 185.611 75.51C158.855 80.3747 134.141 93.0643 114.597 111.974C95.0522 130.884 81.5539 155.165 75.8089 181.747L210.207 210.794L325.781 136.299Z" fill="#63AB83"/>
<path d="M76.1133 181.56C71.3613 203.668 72.1348 226.606 78.3653 248.343C84.5957 270.08 96.0908 289.945 111.832 306.178C127.574 322.411 147.076 334.512 168.611 341.408C190.146 348.304 213.049 349.782 235.292 345.712C257.535 341.643 278.431 332.15 296.129 318.075C313.827 304.001 327.781 285.779 336.755 265.023C345.728 244.268 349.445 221.62 347.575 199.085C345.705 176.55 338.306 154.824 326.034 135.832L210.544 210.456L76.1133 181.56Z" fill="#92E3A9"/>
<path d="M177.996 289.288C176.828 289.288 175.668 289.136 174.516 288.832C173.38 288.512 172.404 288.064 171.588 287.488L173.124 284.512C173.764 284.976 174.5 285.344 175.332 285.616C176.18 285.888 177.036 286.024 177.9 286.024C178.876 286.024 179.644 285.832 180.204 285.448C180.764 285.064 181.044 284.528 181.044 283.84C181.044 283.408 180.932 283.024 180.708 282.688C180.484 282.352 180.084 282.096 179.508 281.92C178.948 281.744 178.156 281.656 177.132 281.656H172.836L173.7 272.2H183.948V275.32H175.092L177.108 273.544L176.508 280.288L174.492 278.512H178.044C179.708 278.512 181.044 278.744 182.052 279.208C183.076 279.656 183.82 280.272 184.284 281.056C184.748 281.84 184.98 282.728 184.98 283.72C184.98 284.712 184.732 285.632 184.236 286.48C183.74 287.312 182.972 287.992 181.932 288.52C180.908 289.032 179.596 289.288 177.996 289.288ZM188.964 289L195.732 273.688L196.74 275.368H187.692L189.42 273.544V278.104H185.964V272.2H199.428V274.72L193.188 289H188.964ZM202.218 289.192C201.578 289.192 201.026 288.976 200.562 288.544C200.114 288.096 199.89 287.528 199.89 286.84C199.89 286.152 200.114 285.6 200.562 285.184C201.026 284.752 201.578 284.536 202.218 284.536C202.874 284.536 203.426 284.752 203.874 285.184C204.322 285.6 204.546 286.152 204.546 286.84C204.546 287.528 204.322 288.096 203.874 288.544C203.426 288.976 202.874 289.192 202.218 289.192ZM211.974 289.288C210.806 289.288 209.646 289.136 208.494 288.832C207.342 288.512 206.366 288.064 205.566 287.488L207.078 284.512C207.718 284.976 208.462 285.344 209.31 285.616C210.158 285.888 211.014 286.024 211.878 286.024C212.854 286.024 213.622 285.832 214.182 285.448C214.742 285.064 215.022 284.536 215.022 283.864C215.022 283.224 214.774 282.72 214.278 282.352C213.782 281.984 212.982 281.8 211.878 281.8H210.102V279.232L214.782 273.928L215.214 275.32H206.406V272.2H218.166V274.72L213.51 280.024L211.542 278.896H212.67C214.734 278.896 216.294 279.36 217.35 280.288C218.406 281.216 218.934 282.408 218.934 283.864C218.934 284.808 218.686 285.696 218.19 286.528C217.694 287.344 216.934 288.008 215.91 288.52C214.886 289.032 213.574 289.288 211.974 289.288ZM228.241 289.288C226.705 289.288 225.369 288.968 224.233 288.328C223.113 287.688 222.249 286.752 221.641 285.52C221.033 284.288 220.729 282.768 220.729 280.96C220.729 279.024 221.089 277.384 221.809 276.04C222.545 274.696 223.553 273.672 224.833 272.968C226.129 272.264 227.617 271.912 229.297 271.912C230.193 271.912 231.049 272.008 231.865 272.2C232.681 272.392 233.385 272.68 233.977 273.064L232.537 275.92C232.073 275.6 231.577 275.384 231.049 275.272C230.521 275.144 229.969 275.08 229.393 275.08C227.937 275.08 226.785 275.52 225.937 276.4C225.089 277.28 224.665 278.584 224.665 280.312C224.665 280.6 224.665 280.92 224.665 281.272C224.681 281.624 224.729 281.976 224.809 282.328L223.729 281.32C224.033 280.696 224.425 280.176 224.905 279.76C225.385 279.328 225.953 279.008 226.609 278.8C227.281 278.576 228.017 278.464 228.817 278.464C229.905 278.464 230.881 278.68 231.745 279.112C232.609 279.544 233.297 280.152 233.809 280.936C234.337 281.72 234.601 282.64 234.601 283.696C234.601 284.832 234.313 285.824 233.737 286.672C233.177 287.504 232.417 288.152 231.457 288.616C230.513 289.064 229.441 289.288 228.241 289.288ZM228.025 286.384C228.569 286.384 229.049 286.288 229.465 286.096C229.897 285.888 230.233 285.592 230.473 285.208C230.713 284.824 230.833 284.384 230.833 283.888C230.833 283.12 230.569 282.512 230.041 282.064C229.529 281.6 228.841 281.368 227.977 281.368C227.401 281.368 226.897 281.48 226.465 281.704C226.033 281.912 225.689 282.208 225.433 282.592C225.193 282.96 225.073 283.392 225.073 283.888C225.073 284.368 225.193 284.8 225.433 285.184C225.673 285.552 226.009 285.848 226.441 286.072C226.873 286.28 227.401 286.384 228.025 286.384ZM237.965 289L249.437 272.2H252.293L240.821 289H237.965ZM239.429 281.272C238.613 281.272 237.893 281.088 237.269 280.72C236.645 280.336 236.149 279.8 235.781 279.112C235.429 278.408 235.253 277.584 235.253 276.64C235.253 275.696 235.429 274.88 235.781 274.192C236.149 273.504 236.645 272.968 237.269 272.584C237.893 272.2 238.613 272.008 239.429 272.008C240.245 272.008 240.965 272.2 241.589 272.584C242.213 272.968 242.701 273.504 243.053 274.192C243.405 274.88 243.581 275.696 243.581 276.64C243.581 277.584 243.405 278.408 243.053 279.112C242.701 279.8 242.213 280.336 241.589 280.72C240.965 281.088 240.245 281.272 239.429 281.272ZM239.429 279.304C239.957 279.304 240.381 279.088 240.701 278.656C241.021 278.208 241.181 277.536 241.181 276.64C241.181 275.744 241.021 275.08 240.701 274.648C240.381 274.2 239.957 273.976 239.429 273.976C238.917 273.976 238.493 274.2 238.157 274.648C237.837 275.08 237.677 275.744 237.677 276.64C237.677 277.52 237.837 278.184 238.157 278.632C238.493 279.08 238.917 279.304 239.429 279.304ZM250.829 289.192C250.029 289.192 249.309 289.008 248.669 288.64C248.045 288.256 247.557 287.72 247.205 287.032C246.853 286.328 246.677 285.504 246.677 284.56C246.677 283.616 246.853 282.8 247.205 282.112C247.557 281.424 248.045 280.888 248.669 280.504C249.309 280.12 250.029 279.928 250.829 279.928C251.661 279.928 252.389 280.12 253.013 280.504C253.637 280.888 254.125 281.424 254.477 282.112C254.829 282.8 255.005 283.616 255.005 284.56C255.005 285.504 254.829 286.328 254.477 287.032C254.125 287.72 253.637 288.256 253.013 288.64C252.389 289.008 251.661 289.192 250.829 289.192ZM250.829 287.224C251.357 287.224 251.781 287.008 252.101 286.576C252.421 286.128 252.581 285.456 252.581 284.56C252.581 283.68 252.421 283.016 252.101 282.568C251.781 282.12 251.357 281.896 250.829 281.896C250.317 281.896 249.893 282.12 249.557 282.568C249.237 283 249.077 283.664 249.077 284.56C249.077 285.456 249.237 286.128 249.557 286.576C249.893 287.008 250.317 287.224 250.829 287.224Z" fill="#FEFEFE"/>
<path d="M171.662 146.112V143.971L178.144 135.25H181.483L175.139 143.971L173.587 143.52H184.41V146.112H171.662ZM179.067 149V146.112L179.165 143.52V140.946H182.171V149H179.067ZM185.244 149V146.937L190.548 141.928C190.967 141.549 191.275 141.208 191.471 140.907C191.667 140.606 191.798 140.331 191.864 140.082C191.942 139.833 191.982 139.604 191.982 139.395C191.982 138.845 191.792 138.425 191.412 138.137C191.045 137.836 190.502 137.686 189.782 137.686C189.205 137.686 188.669 137.797 188.171 138.02C187.686 138.242 187.274 138.589 186.933 139.061L184.616 137.568C185.139 136.782 185.873 136.16 186.816 135.702C187.758 135.243 188.845 135.014 190.076 135.014C191.098 135.014 191.988 135.184 192.748 135.525C193.52 135.852 194.116 136.317 194.535 136.92C194.967 137.522 195.183 138.242 195.183 139.08C195.183 139.525 195.125 139.971 195.007 140.416C194.902 140.848 194.679 141.306 194.339 141.791C194.011 142.276 193.527 142.819 192.885 143.421L188.485 147.566L187.876 146.407H195.635V149H185.244ZM198.947 149.157C198.423 149.157 197.972 148.98 197.592 148.627C197.225 148.26 197.042 147.795 197.042 147.232C197.042 146.669 197.225 146.217 197.592 145.877C197.972 145.523 198.423 145.346 198.947 145.346C199.484 145.346 199.936 145.523 200.303 145.877C200.669 146.217 200.853 146.669 200.853 147.232C200.853 147.795 200.669 148.26 200.303 148.627C199.936 148.98 199.484 149.157 198.947 149.157ZM208.18 149.236C206.923 149.236 205.829 148.974 204.9 148.45C203.983 147.926 203.276 147.16 202.778 146.152C202.281 145.143 202.032 143.899 202.032 142.42C202.032 140.835 202.326 139.493 202.916 138.393C203.518 137.293 204.343 136.455 205.391 135.878C206.451 135.302 207.669 135.014 209.044 135.014C209.778 135.014 210.478 135.093 211.146 135.25C211.814 135.407 212.39 135.643 212.875 135.957L211.696 138.295C211.316 138.033 210.91 137.856 210.478 137.764C210.046 137.659 209.594 137.607 209.123 137.607C207.931 137.607 206.988 137.967 206.294 138.687C205.6 139.408 205.253 140.475 205.253 141.889C205.253 142.125 205.253 142.387 205.253 142.675C205.266 142.963 205.306 143.251 205.371 143.539L204.487 142.714C204.736 142.203 205.057 141.778 205.45 141.437C205.842 141.084 206.307 140.822 206.844 140.652C207.394 140.468 207.997 140.377 208.651 140.377C209.542 140.377 210.341 140.553 211.048 140.907C211.755 141.261 212.318 141.758 212.737 142.4C213.169 143.042 213.385 143.795 213.385 144.659C213.385 145.589 213.15 146.401 212.678 147.095C212.22 147.776 211.598 148.306 210.812 148.686C210.04 149.052 209.162 149.236 208.18 149.236ZM208.003 146.859C208.448 146.859 208.841 146.78 209.182 146.623C209.535 146.453 209.81 146.211 210.007 145.896C210.203 145.582 210.301 145.222 210.301 144.816C210.301 144.187 210.085 143.69 209.653 143.323C209.234 142.943 208.671 142.754 207.964 142.754C207.492 142.754 207.08 142.845 206.726 143.029C206.373 143.199 206.091 143.441 205.882 143.755C205.685 144.056 205.587 144.41 205.587 144.816C205.587 145.209 205.685 145.562 205.882 145.877C206.078 146.178 206.353 146.42 206.707 146.604C207.06 146.774 207.492 146.859 208.003 146.859ZM214.382 146.112V143.971L220.864 135.25H224.203L217.858 143.971L216.307 143.52H227.13V146.112H214.382ZM221.787 149V146.112L221.885 143.52V140.946H224.891V149H221.787ZM229.471 149L238.86 135.25H241.198L231.809 149H229.471ZM230.669 142.675C230.001 142.675 229.412 142.524 228.901 142.223C228.391 141.909 227.985 141.47 227.684 140.907C227.395 140.331 227.251 139.656 227.251 138.884C227.251 138.111 227.395 137.443 227.684 136.88C227.985 136.317 228.391 135.878 228.901 135.564C229.412 135.25 230.001 135.093 230.669 135.093C231.337 135.093 231.926 135.25 232.437 135.564C232.948 135.878 233.347 136.317 233.635 136.88C233.924 137.443 234.068 138.111 234.068 138.884C234.068 139.656 233.924 140.331 233.635 140.907C233.347 141.47 232.948 141.909 232.437 142.223C231.926 142.524 231.337 142.675 230.669 142.675ZM230.669 141.064C231.101 141.064 231.448 140.887 231.71 140.534C231.972 140.167 232.103 139.617 232.103 138.884C232.103 138.15 231.972 137.607 231.71 137.253C231.448 136.887 231.101 136.703 230.669 136.703C230.25 136.703 229.903 136.887 229.628 137.253C229.366 137.607 229.235 138.15 229.235 138.884C229.235 139.604 229.366 140.148 229.628 140.514C229.903 140.881 230.25 141.064 230.669 141.064ZM240 149.157C239.345 149.157 238.756 149.007 238.232 148.705C237.721 148.391 237.322 147.952 237.034 147.389C236.746 146.813 236.602 146.139 236.602 145.366C236.602 144.593 236.746 143.926 237.034 143.362C237.322 142.799 237.721 142.361 238.232 142.046C238.756 141.732 239.345 141.575 240 141.575C240.681 141.575 241.277 141.732 241.787 142.046C242.298 142.361 242.697 142.799 242.986 143.362C243.274 143.926 243.418 144.593 243.418 145.366C243.418 146.139 243.274 146.813 242.986 147.389C242.697 147.952 242.298 148.391 241.787 148.705C241.277 149.007 240.681 149.157 240 149.157ZM240 147.546C240.432 147.546 240.779 147.37 241.041 147.016C241.303 146.649 241.434 146.099 241.434 145.366C241.434 144.646 241.303 144.102 241.041 143.736C240.779 143.369 240.432 143.186 240 143.186C239.581 143.186 239.234 143.369 238.959 143.736C238.697 144.089 238.566 144.633 238.566 145.366C238.566 146.099 238.697 146.649 238.959 147.016C239.234 147.37 239.581 147.546 240 147.546Z" fill="#FEFEFE"/>
<path d="M178.034 43.92H179.954V49.38C179.261 49.9533 178.454 50.3933 177.534 50.7C176.614 51.0067 175.654 51.16 174.654 51.16C173.241 51.16 171.968 50.8533 170.834 50.24C169.701 49.6133 168.808 48.76 168.154 47.68C167.514 46.5867 167.194 45.36 167.194 44C167.194 42.64 167.514 41.4133 168.154 40.32C168.808 39.2267 169.701 38.3733 170.834 37.76C171.981 37.1467 173.268 36.84 174.694 36.84C175.814 36.84 176.828 37.0267 177.734 37.4C178.654 37.76 179.434 38.2933 180.074 39L178.834 40.24C177.714 39.16 176.361 38.62 174.774 38.62C173.708 38.62 172.748 38.8533 171.894 39.32C171.054 39.7733 170.394 40.4133 169.914 41.24C169.434 42.0533 169.194 42.9733 169.194 44C169.194 45.0133 169.434 45.9333 169.914 46.76C170.394 47.5733 171.054 48.2133 171.894 48.68C172.748 49.1467 173.701 49.38 174.754 49.38C176.008 49.38 177.101 49.08 178.034 48.48V43.92ZM193.944 49.26V51H183.784V37H193.664V38.74H185.784V43.04H192.804V44.74H185.784V49.26H193.944ZM209.222 37V51H207.582L199.182 40.56V51H197.182V37H198.822L207.222 47.44V37H209.222ZM213.413 37H219.313C220.793 37 222.106 37.2933 223.253 37.88C224.399 38.4667 225.286 39.2933 225.913 40.36C226.553 41.4133 226.873 42.6267 226.873 44C226.873 45.3733 226.553 46.5933 225.913 47.66C225.286 48.7133 224.399 49.5333 223.253 50.12C222.106 50.7067 220.793 51 219.313 51H213.413V37ZM219.193 49.26C220.326 49.26 221.319 49.04 222.173 48.6C223.039 48.16 223.706 47.5467 224.173 46.76C224.639 45.96 224.873 45.04 224.873 44C224.873 42.96 224.639 42.0467 224.173 41.26C223.706 40.46 223.039 39.84 222.173 39.4C221.319 38.96 220.326 38.74 219.193 38.74H215.413V49.26H219.193ZM240.096 49.26V51H229.936V37H239.816V38.74H231.936V43.04H238.956V44.74H231.936V49.26H240.096ZM252.694 51L249.674 46.7C249.301 46.7267 249.008 46.74 248.794 46.74H245.334V51H243.334V37H248.794C250.608 37 252.034 37.4333 253.074 38.3C254.114 39.1667 254.634 40.36 254.634 41.88C254.634 42.96 254.368 43.88 253.834 44.64C253.301 45.4 252.541 45.9533 251.554 46.3L254.874 51H252.694ZM248.734 45.04C250.001 45.04 250.968 44.7667 251.634 44.22C252.301 43.6733 252.634 42.8933 252.634 41.88C252.634 40.8667 252.301 40.0933 251.634 39.56C250.968 39.0133 250.001 38.74 248.734 38.74H245.334V45.04H248.734Z" fill="#062515"/>
<rect width="16" height="16" transform="translate(139 389)" fill="#92E3A9"/>
<path d="M169.514 392.6V401H168.662V394.28L165.362 399.932H164.942L161.642 394.316V401H160.79V392.6H161.522L165.17 398.828L168.782 392.6H169.514ZM177.519 398.756H172.839L171.831 401H170.907L174.747 392.6H175.623L179.463 401H178.527L177.519 398.756ZM177.195 398.036L175.179 393.524L173.163 398.036H177.195ZM180.852 392.6H181.74V400.232H186.444V401H180.852V392.6ZM193.859 400.232V401H187.919V392.6H193.679V393.368H188.807V396.356H193.151V397.112H188.807V400.232H193.859Z" fill="#062515"/>
<rect width="16" height="16" transform="translate(211 389)" fill="#63AB83"/>
<path d="M233.367 393.368V396.668H237.711V397.436H233.367V401H232.479V392.6H238.239V393.368H233.367ZM246.013 400.232V401H240.073V392.6H245.833V393.368H240.961V396.356H245.305V397.112H240.961V400.232H246.013ZM256.824 392.6V401H255.972V394.28L252.672 399.932H252.252L248.952 394.316V401H248.1V392.6H248.832L252.48 398.828L256.092 392.6H256.824ZM264.829 398.756H260.149L259.141 401H258.217L262.057 392.6H262.933L266.773 401H265.837L264.829 398.756ZM264.505 398.036L262.489 393.524L260.473 398.036H264.505ZM268.163 392.6H269.051V400.232H273.755V401H268.163V392.6ZM281.169 400.232V401H275.229V392.6H280.989V393.368H276.117V396.356H280.461V397.112H276.117V400.232H281.169Z" fill="#062515"/>
<rect x="0.5" y="0.5" width="420" height="445" rx="3.5" stroke="#3D9363" stroke-opacity="0.5"/>
</svg>
