<svg width="421" height="446" viewBox="0 0 421 446" fill="none" xmlns="http://www.w3.org/2000/svg">
<path d="M325.781 136.299C311.047 113.441 289.866 95.465 264.916 84.6446C239.966 73.8242 212.368 70.6453 185.611 75.51C158.855 80.3746 134.142 93.0642 114.597 111.974C95.0523 130.884 81.554 155.165 75.8091 181.747L210.207 210.794L325.781 136.299Z" fill="#63AB83"/>
<path d="M277.694 330.595C309.467 312.696 332.829 282.909 342.64 247.786L210.207 210.794L277.694 330.595Z" fill="#2D5841"/>
<path d="M342.456 248.141C347.768 229.257 348.977 209.454 346.003 190.064C343.029 170.673 335.94 152.144 325.213 135.719L210.091 210.909L342.456 248.141Z" fill="#049A8F"/>
<path d="M76.1133 181.56C70.5345 207.514 72.588 234.528 82.0258 259.341C91.4637 284.153 107.882 305.703 129.3 321.389C150.717 337.074 176.216 346.225 202.72 347.735C229.224 349.246 255.598 343.052 278.659 329.901L210.544 210.456L76.1133 181.56Z" fill="#92E3A9"/>
<path d="M129.807 277.107V274.966L136.289 266.244H139.628L133.283 274.966L131.732 274.514H142.555V277.107H129.807ZM137.212 279.994V277.107L137.31 274.514V271.94H140.316V279.994H137.212ZM143.35 277.107V274.966L149.832 266.244H153.171L146.826 274.966L145.275 274.514H156.098V277.107H143.35ZM150.755 279.994V277.107L150.853 274.514V271.94H153.859V279.994H150.755ZM159.241 280.151C158.717 280.151 158.265 279.974 157.885 279.621C157.518 279.254 157.335 278.789 157.335 278.226C157.335 277.663 157.518 277.211 157.885 276.871C158.265 276.517 158.717 276.341 159.241 276.341C159.777 276.341 160.229 276.517 160.596 276.871C160.963 277.211 161.146 277.663 161.146 278.226C161.146 278.789 160.963 279.254 160.596 279.621C160.229 279.974 159.777 280.151 159.241 280.151ZM162.417 277.107V274.966L168.899 266.244H172.239L165.894 274.966L164.342 274.514H175.166V277.107H162.417ZM169.823 279.994V277.107L169.921 274.514V271.94H172.926V279.994H169.823ZM182.266 280.23C181.008 280.23 179.915 279.968 178.985 279.444C178.069 278.92 177.361 278.154 176.864 277.146C176.366 276.138 176.117 274.893 176.117 273.414C176.117 271.829 176.412 270.487 177.001 269.387C177.604 268.287 178.429 267.449 179.476 266.873C180.537 266.296 181.755 266.008 183.13 266.008C183.863 266.008 184.564 266.087 185.232 266.244C185.9 266.401 186.476 266.637 186.96 266.951L185.782 269.289C185.402 269.027 184.996 268.85 184.564 268.758C184.132 268.654 183.68 268.601 183.208 268.601C182.017 268.601 181.074 268.961 180.38 269.682C179.686 270.402 179.339 271.469 179.339 272.883C179.339 273.119 179.339 273.381 179.339 273.669C179.352 273.957 179.391 274.245 179.457 274.533L178.573 273.708C178.822 273.198 179.142 272.772 179.535 272.432C179.928 272.078 180.393 271.816 180.93 271.646C181.48 271.462 182.082 271.371 182.737 271.371C183.628 271.371 184.426 271.548 185.133 271.901C185.841 272.255 186.404 272.752 186.823 273.394C187.255 274.036 187.471 274.789 187.471 275.653C187.471 276.583 187.235 277.395 186.764 278.089C186.306 278.77 185.683 279.3 184.898 279.68C184.125 280.047 183.248 280.23 182.266 280.23ZM182.089 277.853C182.534 277.853 182.927 277.774 183.267 277.617C183.621 277.447 183.896 277.205 184.092 276.891C184.289 276.576 184.387 276.216 184.387 275.81C184.387 275.182 184.171 274.684 183.739 274.317C183.32 273.938 182.757 273.748 182.05 273.748C181.578 273.748 181.166 273.839 180.812 274.023C180.458 274.193 180.177 274.435 179.967 274.749C179.771 275.051 179.673 275.404 179.673 275.81C179.673 276.203 179.771 276.557 179.967 276.871C180.164 277.172 180.439 277.414 180.792 277.598C181.146 277.768 181.578 277.853 182.089 277.853ZM190.225 279.994L199.614 266.244H201.952L192.562 279.994H190.225ZM191.423 273.669C190.755 273.669 190.166 273.518 189.655 273.217C189.144 272.903 188.738 272.464 188.437 271.901C188.149 271.325 188.005 270.651 188.005 269.878C188.005 269.105 188.149 268.437 188.437 267.874C188.738 267.311 189.144 266.873 189.655 266.558C190.166 266.244 190.755 266.087 191.423 266.087C192.091 266.087 192.68 266.244 193.191 266.558C193.702 266.873 194.101 267.311 194.389 267.874C194.677 268.437 194.821 269.105 194.821 269.878C194.821 270.651 194.677 271.325 194.389 271.901C194.101 272.464 193.702 272.903 193.191 273.217C192.68 273.518 192.091 273.669 191.423 273.669ZM191.423 272.058C191.855 272.058 192.202 271.882 192.464 271.528C192.726 271.161 192.857 270.611 192.857 269.878C192.857 269.145 192.726 268.601 192.464 268.248C192.202 267.881 191.855 267.698 191.423 267.698C191.004 267.698 190.657 267.881 190.382 268.248C190.12 268.601 189.989 269.145 189.989 269.878C189.989 270.598 190.12 271.142 190.382 271.508C190.657 271.875 191.004 272.058 191.423 272.058ZM200.753 280.151C200.099 280.151 199.509 280.001 198.986 279.699C198.475 279.385 198.075 278.947 197.787 278.383C197.499 277.807 197.355 277.133 197.355 276.36C197.355 275.588 197.499 274.92 197.787 274.357C198.075 273.793 198.475 273.355 198.986 273.04C199.509 272.726 200.099 272.569 200.753 272.569C201.434 272.569 202.03 272.726 202.541 273.04C203.052 273.355 203.451 273.793 203.739 274.357C204.027 274.92 204.171 275.588 204.171 276.36C204.171 277.133 204.027 277.807 203.739 278.383C203.451 278.947 203.052 279.385 202.541 279.699C202.03 280.001 201.434 280.151 200.753 280.151ZM200.753 278.541C201.186 278.541 201.533 278.364 201.794 278.01C202.056 277.644 202.187 277.094 202.187 276.36C202.187 275.64 202.056 275.096 201.794 274.73C201.533 274.363 201.186 274.18 200.753 274.18C200.334 274.18 199.987 274.363 199.712 274.73C199.45 275.083 199.319 275.627 199.319 276.36C199.319 277.094 199.45 277.644 199.712 278.01C199.987 278.364 200.334 278.541 200.753 278.541Z" fill="#FEFEFE"/>
<path d="M152.527 151.882V149.741L159.009 141.019H162.349L156.004 149.741L154.452 149.289H165.275V151.882H152.527ZM159.932 154.769V151.882L160.031 149.289V146.716H163.036V154.769H159.932ZM166.109 154.769V152.707L171.413 147.698C171.832 147.318 172.14 146.978 172.336 146.676C172.533 146.375 172.664 146.1 172.729 145.851C172.808 145.603 172.847 145.373 172.847 145.164C172.847 144.614 172.657 144.195 172.277 143.907C171.911 143.605 171.367 143.455 170.647 143.455C170.071 143.455 169.534 143.566 169.036 143.789C168.552 144.011 168.139 144.358 167.799 144.83L165.481 143.337C166.005 142.551 166.738 141.929 167.681 141.471C168.624 141.013 169.711 140.783 170.942 140.783C171.963 140.783 172.853 140.954 173.613 141.294C174.386 141.622 174.981 142.086 175.401 142.689C175.833 143.291 176.049 144.011 176.049 144.85C176.049 145.295 175.99 145.74 175.872 146.185C175.767 146.617 175.545 147.076 175.204 147.56C174.877 148.045 174.392 148.588 173.75 149.191L169.35 153.335L168.741 152.176H176.501V154.769H166.109ZM179.813 154.926C179.289 154.926 178.837 154.75 178.457 154.396C178.09 154.029 177.907 153.565 177.907 153.001C177.907 152.438 178.09 151.987 178.457 151.646C178.837 151.292 179.289 151.116 179.813 151.116C180.349 151.116 180.801 151.292 181.168 151.646C181.535 151.987 181.718 152.438 181.718 153.001C181.718 153.565 181.535 154.029 181.168 154.396C180.801 154.75 180.349 154.926 179.813 154.926ZM189.045 155.005C187.788 155.005 186.695 154.743 185.765 154.219C184.848 153.695 184.141 152.929 183.643 151.921C183.146 150.913 182.897 149.669 182.897 148.189C182.897 146.604 183.192 145.262 183.781 144.162C184.383 143.062 185.208 142.224 186.256 141.648C187.317 141.072 188.535 140.783 189.91 140.783C190.643 140.783 191.343 140.862 192.011 141.019C192.679 141.176 193.255 141.412 193.74 141.726L192.561 144.064C192.182 143.802 191.776 143.625 191.343 143.533C190.911 143.429 190.46 143.376 189.988 143.376C188.796 143.376 187.854 143.736 187.159 144.457C186.465 145.177 186.118 146.244 186.118 147.658C186.118 147.894 186.118 148.156 186.118 148.444C186.132 148.732 186.171 149.02 186.236 149.309L185.352 148.484C185.601 147.973 185.922 147.547 186.315 147.207C186.708 146.853 187.173 146.591 187.709 146.421C188.26 146.238 188.862 146.146 189.517 146.146C190.407 146.146 191.206 146.323 191.913 146.676C192.62 147.03 193.183 147.528 193.602 148.169C194.035 148.811 194.251 149.564 194.251 150.428C194.251 151.358 194.015 152.17 193.543 152.864C193.085 153.545 192.463 154.075 191.677 154.455C190.905 154.822 190.027 155.005 189.045 155.005ZM188.868 152.628C189.314 152.628 189.707 152.55 190.047 152.392C190.401 152.222 190.676 151.98 190.872 151.666C191.068 151.351 191.167 150.991 191.167 150.585C191.167 149.957 190.951 149.459 190.518 149.092C190.099 148.713 189.536 148.523 188.829 148.523C188.358 148.523 187.945 148.614 187.592 148.798C187.238 148.968 186.957 149.21 186.747 149.525C186.551 149.826 186.452 150.179 186.452 150.585C186.452 150.978 186.551 151.332 186.747 151.646C186.943 151.947 187.218 152.189 187.572 152.373C187.926 152.543 188.358 152.628 188.868 152.628ZM195.247 151.882V149.741L201.729 141.019H205.068L198.724 149.741L197.172 149.289H207.995V151.882H195.247ZM202.652 154.769V151.882L202.751 149.289V146.716H205.756V154.769H202.652ZM210.336 154.769L219.726 141.019H222.063L212.674 154.769H210.336ZM211.535 148.444C210.867 148.444 210.277 148.294 209.767 147.992C209.256 147.678 208.85 147.239 208.549 146.676C208.261 146.1 208.117 145.426 208.117 144.653C208.117 143.88 208.261 143.213 208.549 142.65C208.85 142.086 209.256 141.648 209.767 141.333C210.277 141.019 210.867 140.862 211.535 140.862C212.202 140.862 212.792 141.019 213.302 141.333C213.813 141.648 214.213 142.086 214.501 142.65C214.789 143.213 214.933 143.88 214.933 144.653C214.933 145.426 214.789 146.1 214.501 146.676C214.213 147.239 213.813 147.678 213.302 147.992C212.792 148.294 212.202 148.444 211.535 148.444ZM211.535 146.833C211.967 146.833 212.314 146.657 212.576 146.303C212.838 145.936 212.968 145.386 212.968 144.653C212.968 143.92 212.838 143.376 212.576 143.023C212.314 142.656 211.967 142.473 211.535 142.473C211.115 142.473 210.768 142.656 210.493 143.023C210.232 143.376 210.101 143.92 210.101 144.653C210.101 145.373 210.232 145.917 210.493 146.283C210.768 146.65 211.115 146.833 211.535 146.833ZM220.865 154.926C220.21 154.926 219.621 154.776 219.097 154.475C218.586 154.16 218.187 153.722 217.899 153.159C217.611 152.582 217.467 151.908 217.467 151.135C217.467 150.363 217.611 149.695 217.899 149.132C218.187 148.569 218.586 148.13 219.097 147.816C219.621 147.501 220.21 147.344 220.865 147.344C221.546 147.344 222.142 147.501 222.653 147.816C223.163 148.13 223.563 148.569 223.851 149.132C224.139 149.695 224.283 150.363 224.283 151.135C224.283 151.908 224.139 152.582 223.851 153.159C223.563 153.722 223.163 154.16 222.653 154.475C222.142 154.776 221.546 154.926 220.865 154.926ZM220.865 153.316C221.297 153.316 221.644 153.139 221.906 152.785C222.168 152.419 222.299 151.869 222.299 151.135C222.299 150.415 222.168 149.872 221.906 149.505C221.644 149.138 221.297 148.955 220.865 148.955C220.446 148.955 220.099 149.138 219.824 149.505C219.562 149.859 219.431 150.402 219.431 151.135C219.431 151.869 219.562 152.419 219.824 152.785C220.099 153.139 220.446 153.316 220.865 153.316Z" fill="#FEFEFE"/>
<path d="M268.057 207.606V197.13L269.203 198.276H265.765V196.148H270.708V207.606H268.057ZM274.532 207.606L279.148 197.163L279.836 198.308H273.665L274.843 197.064V200.175H272.486V196.148H281.669V197.867L277.413 207.606H274.532ZM283.573 207.737C283.136 207.737 282.76 207.59 282.443 207.295C282.137 206.99 281.985 206.602 281.985 206.133C281.985 205.664 282.137 205.287 282.443 205.003C282.76 204.709 283.136 204.562 283.573 204.562C284.02 204.562 284.396 204.709 284.702 205.003C285.008 205.287 285.16 205.664 285.16 206.133C285.16 206.602 285.008 206.99 284.702 207.295C284.396 207.59 284.02 207.737 283.573 207.737ZM290.247 207.803C289.45 207.803 288.659 207.699 287.873 207.492C287.098 207.273 286.433 206.968 285.876 206.575L286.924 204.545C287.36 204.862 287.862 205.113 288.43 205.298C289.008 205.484 289.592 205.576 290.181 205.576C290.847 205.576 291.371 205.445 291.753 205.184C292.134 204.922 292.325 204.556 292.325 204.087C292.325 203.792 292.249 203.53 292.096 203.301C291.943 203.072 291.671 202.897 291.278 202.777C290.896 202.657 290.356 202.597 289.657 202.597H286.727L287.316 196.148H294.306V198.276H288.266L289.641 197.064L289.232 201.664L287.857 200.453H290.279C291.414 200.453 292.325 200.611 293.013 200.928C293.711 201.233 294.219 201.653 294.535 202.188C294.852 202.723 295.01 203.328 295.01 204.005C295.01 204.682 294.841 205.309 294.503 205.887C294.164 206.455 293.64 206.919 292.931 207.279C292.233 207.628 291.338 207.803 290.247 207.803ZM299.722 207.803C298.925 207.803 298.134 207.699 297.348 207.492C296.563 207.273 295.897 206.968 295.351 206.575L296.382 204.545C296.819 204.862 297.326 205.113 297.905 205.298C298.483 205.484 299.067 205.576 299.656 205.576C300.322 205.576 300.846 205.445 301.228 205.184C301.61 204.922 301.801 204.562 301.801 204.103C301.801 203.667 301.632 203.323 301.293 203.072C300.955 202.821 300.409 202.695 299.656 202.695H298.445V200.944L301.637 197.326L301.932 198.276H295.924V196.148H303.945V197.867L300.769 201.484L299.427 200.715H300.196C301.604 200.715 302.668 201.031 303.388 201.664C304.109 202.297 304.469 203.11 304.469 204.103C304.469 204.747 304.3 205.353 303.961 205.92C303.623 206.477 303.105 206.93 302.406 207.279C301.708 207.628 300.813 207.803 299.722 207.803ZM307.187 207.606L315.011 196.148H316.959L309.135 207.606H307.187ZM308.185 202.335C307.629 202.335 307.138 202.21 306.712 201.959C306.286 201.697 305.948 201.331 305.697 200.862C305.457 200.382 305.337 199.82 305.337 199.176C305.337 198.532 305.457 197.976 305.697 197.506C305.948 197.037 306.286 196.672 306.712 196.41C307.138 196.148 307.629 196.017 308.185 196.017C308.742 196.017 309.233 196.148 309.658 196.41C310.084 196.672 310.417 197.037 310.657 197.506C310.897 197.976 311.017 198.532 311.017 199.176C311.017 199.82 310.897 200.382 310.657 200.862C310.417 201.331 310.084 201.697 309.658 201.959C309.233 202.21 308.742 202.335 308.185 202.335ZM308.185 200.993C308.545 200.993 308.834 200.846 309.053 200.551C309.271 200.246 309.38 199.787 309.38 199.176C309.38 198.565 309.271 198.112 309.053 197.817C308.834 197.512 308.545 197.359 308.185 197.359C307.836 197.359 307.547 197.512 307.318 197.817C307.099 198.112 306.99 198.565 306.99 199.176C306.99 199.776 307.099 200.229 307.318 200.535C307.547 200.84 307.836 200.993 308.185 200.993ZM315.961 207.737C315.415 207.737 314.924 207.612 314.487 207.361C314.062 207.099 313.729 206.733 313.489 206.264C313.249 205.784 313.129 205.222 313.129 204.578C313.129 203.934 313.249 203.377 313.489 202.908C313.729 202.439 314.062 202.073 314.487 201.811C314.924 201.55 315.415 201.419 315.961 201.419C316.528 201.419 317.025 201.55 317.45 201.811C317.876 202.073 318.209 202.439 318.449 202.908C318.689 203.377 318.809 203.934 318.809 204.578C318.809 205.222 318.689 205.784 318.449 206.264C318.209 206.733 317.876 207.099 317.45 207.361C317.025 207.612 316.528 207.737 315.961 207.737ZM315.961 206.395C316.321 206.395 316.61 206.248 316.828 205.953C317.046 205.647 317.156 205.189 317.156 204.578C317.156 203.978 317.046 203.525 316.828 203.219C316.61 202.914 316.321 202.761 315.961 202.761C315.611 202.761 315.322 202.914 315.093 203.219C314.875 203.514 314.766 203.967 314.766 204.578C314.766 205.189 314.875 205.647 315.093 205.953C315.322 206.248 315.611 206.395 315.961 206.395Z" fill="#FEFEFE"/>
<path d="M264.178 268.991V259.562L265.21 260.594H262.116V258.678H266.565V268.991H264.178ZM271.863 269.168C271.146 269.168 270.434 269.074 269.727 268.888C269.029 268.691 268.43 268.416 267.929 268.063L268.872 266.236C269.265 266.521 269.717 266.747 270.228 266.914C270.748 267.081 271.274 267.164 271.804 267.164C272.403 267.164 272.875 267.046 273.218 266.811C273.562 266.575 273.734 266.246 273.734 265.824C273.734 265.558 273.665 265.323 273.528 265.116C273.39 264.91 273.145 264.753 272.791 264.645C272.447 264.537 271.961 264.483 271.333 264.483H268.695L269.226 258.678H275.517V260.594H270.08L271.318 259.503L270.949 263.643L269.712 262.553H271.892C272.914 262.553 273.734 262.695 274.353 262.98C274.981 263.255 275.438 263.633 275.723 264.115C276.008 264.596 276.15 265.141 276.15 265.75C276.15 266.359 275.998 266.924 275.693 267.444C275.389 267.955 274.917 268.372 274.279 268.696C273.65 269.011 272.845 269.168 271.863 269.168ZM278.474 269.109C278.081 269.109 277.742 268.976 277.457 268.711C277.182 268.436 277.045 268.087 277.045 267.665C277.045 267.243 277.182 266.904 277.457 266.649C277.742 266.383 278.081 266.251 278.474 266.251C278.876 266.251 279.215 266.383 279.49 266.649C279.765 266.904 279.903 267.243 279.903 267.665C279.903 268.087 279.765 268.436 279.49 268.711C279.215 268.976 278.876 269.109 278.474 269.109ZM280.856 266.825V265.219L285.718 258.678H288.222L283.464 265.219L282.3 264.881H290.417V266.825H280.856ZM286.41 268.991V266.825L286.484 264.881V262.951H288.738V268.991H286.41ZM292.177 268.991L296.332 259.592L296.95 260.623H291.396L292.457 259.503V262.302H290.335V258.678H298.6V260.225L294.77 268.991H292.177ZM301.208 268.991L308.25 258.678H310.003L302.961 268.991H301.208ZM302.107 264.247C301.606 264.247 301.164 264.134 300.781 263.908C300.398 263.673 300.094 263.344 299.868 262.921C299.652 262.489 299.544 261.983 299.544 261.404C299.544 260.824 299.652 260.323 299.868 259.901C300.094 259.479 300.398 259.15 300.781 258.914C301.164 258.678 301.606 258.56 302.107 258.56C302.608 258.56 303.05 258.678 303.433 258.914C303.816 259.15 304.115 259.479 304.332 259.901C304.548 260.323 304.656 260.824 304.656 261.404C304.656 261.983 304.548 262.489 304.332 262.921C304.115 263.344 303.816 263.673 303.433 263.908C303.05 264.134 302.608 264.247 302.107 264.247ZM302.107 263.039C302.431 263.039 302.691 262.907 302.888 262.641C303.084 262.366 303.182 261.954 303.182 261.404C303.182 260.854 303.084 260.446 302.888 260.181C302.691 259.906 302.431 259.769 302.107 259.769C301.793 259.769 301.532 259.906 301.326 260.181C301.13 260.446 301.031 260.854 301.031 261.404C301.031 261.944 301.13 262.352 301.326 262.627C301.532 262.902 301.793 263.039 302.107 263.039ZM309.105 269.109C308.614 269.109 308.172 268.996 307.779 268.77C307.396 268.534 307.096 268.205 306.88 267.783C306.664 267.351 306.556 266.845 306.556 266.265C306.556 265.686 306.664 265.185 306.88 264.763C307.096 264.34 307.396 264.011 307.779 263.776C308.172 263.54 308.614 263.422 309.105 263.422C309.615 263.422 310.062 263.54 310.445 263.776C310.828 264.011 311.128 264.34 311.344 264.763C311.56 265.185 311.668 265.686 311.668 266.265C311.668 266.845 311.56 267.351 311.344 267.783C311.128 268.205 310.828 268.534 310.445 268.77C310.062 268.996 309.615 269.109 309.105 269.109ZM309.105 267.901C309.429 267.901 309.689 267.768 309.886 267.503C310.082 267.228 310.18 266.815 310.18 266.265C310.18 265.725 310.082 265.318 309.886 265.043C309.689 264.768 309.429 264.63 309.105 264.63C308.79 264.63 308.53 264.768 308.324 265.043C308.128 265.308 308.029 265.715 308.029 266.265C308.029 266.815 308.128 267.228 308.324 267.503C308.53 267.768 308.79 267.901 309.105 267.901Z" fill="#FEFEFE"/>
<path d="M200.37 47.5H192.93L191.39 51H189.33L195.67 37H197.65L204.01 51H201.91L200.37 47.5ZM199.67 45.9L196.65 39.04L193.63 45.9H199.67ZM215.603 43.92H217.523V49.38C216.829 49.9533 216.023 50.3933 215.103 50.7C214.183 51.0067 213.223 51.16 212.223 51.16C210.809 51.16 209.536 50.8533 208.403 50.24C207.269 49.6133 206.376 48.76 205.723 47.68C205.083 46.5867 204.763 45.36 204.763 44C204.763 42.64 205.083 41.4133 205.723 40.32C206.376 39.2267 207.269 38.3733 208.403 37.76C209.549 37.1467 210.836 36.84 212.263 36.84C213.383 36.84 214.396 37.0267 215.303 37.4C216.223 37.76 217.003 38.2933 217.643 39L216.403 40.24C215.283 39.16 213.929 38.62 212.343 38.62C211.276 38.62 210.316 38.8533 209.463 39.32C208.623 39.7733 207.963 40.4133 207.483 41.24C207.003 42.0533 206.763 42.9733 206.763 44C206.763 45.0133 207.003 45.9333 207.483 46.76C207.963 47.5733 208.623 48.2133 209.463 48.68C210.316 49.1467 211.269 49.38 212.323 49.38C213.576 49.38 214.669 49.08 215.603 48.48V43.92ZM231.512 49.26V51H221.352V37H231.232V38.74H223.352V43.04H230.372V44.74H223.352V49.26H231.512Z" fill="#062515"/>
<rect width="16" height="16" transform="translate(71 389)" fill="#92E3A9"/>
<path d="M94.0008 393.6V402H93.1368V394.368H91.1568V393.6H94.0008ZM100.821 397.596C101.349 397.772 101.753 398.036 102.033 398.388C102.321 398.74 102.465 399.164 102.465 399.66C102.465 400.148 102.333 400.576 102.069 400.944C101.805 401.304 101.425 401.584 100.929 401.784C100.441 401.976 99.8648 402.072 99.2008 402.072C98.1928 402.072 97.4008 401.856 96.8248 401.424C96.2488 400.992 95.9608 400.404 95.9608 399.66C95.9608 399.156 96.0968 398.732 96.3688 398.388C96.6488 398.036 97.0528 397.772 97.5808 397.596C97.1488 397.428 96.8208 397.188 96.5968 396.876C96.3728 396.556 96.2608 396.18 96.2608 395.748C96.2608 395.068 96.5248 394.528 97.0528 394.128C97.5888 393.728 98.3048 393.528 99.2008 393.528C99.7928 393.528 100.309 393.62 100.749 393.804C101.197 393.98 101.545 394.236 101.793 394.572C102.041 394.908 102.165 395.3 102.165 395.748C102.165 396.18 102.049 396.556 101.817 396.876C101.585 397.188 101.253 397.428 100.821 397.596ZM97.1248 395.772C97.1248 396.236 97.3088 396.604 97.6768 396.876C98.0448 397.148 98.5528 397.284 99.2008 397.284C99.8488 397.284 100.357 397.148 100.725 396.876C101.101 396.604 101.289 396.24 101.289 395.784C101.289 395.312 101.097 394.94 100.713 394.668C100.337 394.396 99.8328 394.26 99.2008 394.26C98.5608 394.26 98.0528 394.396 97.6768 394.668C97.3088 394.94 97.1248 395.308 97.1248 395.772ZM99.2008 401.34C99.9448 401.34 100.525 401.188 100.941 400.884C101.365 400.58 101.577 400.168 101.577 399.648C101.577 399.128 101.365 398.72 100.941 398.424C100.525 398.12 99.9448 397.968 99.2008 397.968C98.4648 397.968 97.8848 398.12 97.4608 398.424C97.0448 398.72 96.8368 399.128 96.8368 399.648C96.8368 400.176 97.0448 400.592 97.4608 400.896C97.8768 401.192 98.4568 401.34 99.2008 401.34ZM103.757 398.376H106.901V399.12H103.757V398.376ZM113.839 401.232V402H107.947V401.388L111.439 397.968C111.879 397.536 112.175 397.164 112.327 396.852C112.487 396.532 112.567 396.212 112.567 395.892C112.567 395.396 112.395 395.012 112.051 394.74C111.715 394.46 111.231 394.32 110.599 394.32C109.615 394.32 108.851 394.632 108.307 395.256L107.695 394.728C108.023 394.344 108.439 394.048 108.943 393.84C109.455 393.632 110.031 393.528 110.671 393.528C111.527 393.528 112.203 393.732 112.699 394.14C113.203 394.54 113.455 395.092 113.455 395.796C113.455 396.228 113.359 396.644 113.167 397.044C112.975 397.444 112.611 397.904 112.075 398.424L109.219 401.232H113.839ZM121.782 399.792H120.102V402H119.238V399.792H114.498V399.168L118.95 393.6H119.91L115.614 399.024H119.262V397.08H120.102V399.024H121.782V399.792Z" fill="#062515"/>
<rect width="16" height="16" transform="translate(138 389)" fill="#63AB83"/>
<path d="M164.524 401.232V402H158.632V401.388L162.124 397.968C162.564 397.536 162.86 397.164 163.012 396.852C163.172 396.532 163.252 396.212 163.252 395.892C163.252 395.396 163.08 395.012 162.736 394.74C162.4 394.46 161.916 394.32 161.284 394.32C160.3 394.32 159.536 394.632 158.992 395.256L158.38 394.728C158.708 394.344 159.124 394.048 159.628 393.84C160.14 393.632 160.716 393.528 161.356 393.528C162.212 393.528 162.888 393.732 163.384 394.14C163.888 394.54 164.14 395.092 164.14 395.796C164.14 396.228 164.044 396.644 163.852 397.044C163.66 397.444 163.296 397.904 162.76 398.424L159.904 401.232H164.524ZM167.816 397.044C169.032 397.044 169.916 397.264 170.468 397.704C171.028 398.136 171.308 398.744 171.308 399.528C171.308 400.016 171.192 400.452 170.96 400.836C170.736 401.22 170.396 401.524 169.94 401.748C169.484 401.964 168.924 402.072 168.26 402.072C167.66 402.072 167.088 401.976 166.544 401.784C166.008 401.584 165.576 401.32 165.248 400.992L165.668 400.308C165.948 400.596 166.316 400.832 166.772 401.016C167.228 401.192 167.72 401.28 168.248 401.28C168.944 401.28 169.48 401.124 169.856 400.812C170.24 400.5 170.432 400.084 170.432 399.564C170.432 398.988 170.216 398.552 169.784 398.256C169.36 397.96 168.64 397.812 167.624 397.812H165.836L166.268 393.6H170.864V394.368H167.024L166.736 397.044H167.816ZM172.501 398.376H175.645V399.12H172.501V398.376ZM179.609 397.2C180.489 397.248 181.157 397.488 181.613 397.92C182.077 398.344 182.309 398.9 182.309 399.588C182.309 400.068 182.193 400.496 181.961 400.872C181.729 401.24 181.385 401.532 180.929 401.748C180.473 401.964 179.917 402.072 179.261 402.072C178.653 402.072 178.077 401.976 177.533 401.784C176.997 401.584 176.565 401.32 176.237 400.992L176.657 400.308C176.937 400.596 177.309 400.832 177.773 401.016C178.237 401.192 178.733 401.28 179.261 401.28C179.949 401.28 180.481 401.132 180.857 400.836C181.233 400.532 181.421 400.116 181.421 399.588C181.421 399.068 181.233 398.66 180.857 398.364C180.481 398.068 179.913 397.92 179.153 397.92H178.553V397.284L180.881 394.368H176.585V393.6H181.985V394.212L179.609 397.2ZM190.666 399.792H188.986V402H188.122V399.792H183.382V399.168L187.834 393.6H188.794L184.498 399.024H188.146V397.08H188.986V399.024H190.666V399.792Z" fill="#062515"/>
<rect width="16" height="16" transform="translate(207 389)" fill="#2D5841"/>
<path d="M230.482 397.2C231.362 397.248 232.03 397.488 232.486 397.92C232.95 398.344 233.182 398.9 233.182 399.588C233.182 400.068 233.066 400.496 232.834 400.872C232.602 401.24 232.258 401.532 231.802 401.748C231.346 401.964 230.79 402.072 230.134 402.072C229.526 402.072 228.95 401.976 228.406 401.784C227.87 401.584 227.438 401.32 227.11 400.992L227.53 400.308C227.81 400.596 228.182 400.832 228.646 401.016C229.11 401.192 229.606 401.28 230.134 401.28C230.822 401.28 231.354 401.132 231.73 400.836C232.106 400.532 232.294 400.116 232.294 399.588C232.294 399.068 232.106 398.66 231.73 398.364C231.354 398.068 230.786 397.92 230.026 397.92H229.426V397.284L231.754 394.368H227.458V393.6H232.858V394.212L230.482 397.2ZM236.49 397.044C237.706 397.044 238.59 397.264 239.142 397.704C239.702 398.136 239.982 398.744 239.982 399.528C239.982 400.016 239.866 400.452 239.634 400.836C239.41 401.22 239.07 401.524 238.614 401.748C238.158 401.964 237.598 402.072 236.934 402.072C236.334 402.072 235.762 401.976 235.218 401.784C234.682 401.584 234.25 401.32 233.922 400.992L234.342 400.308C234.622 400.596 234.99 400.832 235.446 401.016C235.902 401.192 236.394 401.28 236.922 401.28C237.618 401.28 238.154 401.124 238.53 400.812C238.914 400.5 239.106 400.084 239.106 399.564C239.106 398.988 238.89 398.552 238.458 398.256C238.034 397.96 237.314 397.812 236.298 397.812H234.51L234.942 393.6H239.538V394.368H235.698L235.41 397.044H236.49ZM241.175 398.376H244.319V399.12H241.175V398.376ZM252.895 399.792H251.215V402H250.351V399.792H245.611V399.168L250.063 393.6H251.023L246.727 399.024H250.375V397.08H251.215V399.024H252.895V399.792ZM260.828 399.792H259.148V402H258.284V399.792H253.544V399.168L257.996 393.6H258.956L254.66 399.024H258.308V397.08H259.148V399.024H260.828V399.792Z" fill="#062515"/>
<rect width="16" height="16" transform="translate(277 389)" fill="#049A8F"/>
<path d="M302.272 402.072C301.44 402.072 300.684 401.888 300.004 401.52C299.332 401.144 298.804 400.632 298.42 399.984C298.044 399.336 297.856 398.608 297.856 397.8C297.856 396.992 298.044 396.264 298.42 395.616C298.804 394.968 299.332 394.46 300.004 394.092C300.684 393.716 301.44 393.528 302.272 393.528C303.104 393.528 303.852 393.712 304.516 394.08C305.188 394.448 305.716 394.96 306.1 395.616C306.484 396.264 306.676 396.992 306.676 397.8C306.676 398.608 306.484 399.34 306.1 399.996C305.716 400.644 305.188 401.152 304.516 401.52C303.852 401.888 303.104 402.072 302.272 402.072ZM302.272 401.28C302.936 401.28 303.536 401.132 304.072 400.836C304.608 400.532 305.028 400.116 305.332 399.588C305.636 399.052 305.788 398.456 305.788 397.8C305.788 397.144 305.636 396.552 305.332 396.024C305.028 395.488 304.608 395.072 304.072 394.776C303.536 394.472 302.936 394.32 302.272 394.32C301.608 394.32 301.004 394.472 300.46 394.776C299.924 395.072 299.5 395.488 299.188 396.024C298.884 396.552 298.732 397.144 298.732 397.8C298.732 398.456 298.884 399.052 299.188 399.588C299.5 400.116 299.924 400.532 300.46 400.836C301.004 401.132 301.608 401.28 302.272 401.28ZM315.393 393.6L311.673 402H310.797L307.077 393.6H308.037L311.253 400.896L314.493 393.6H315.393ZM322.552 401.232V402H316.612V393.6H322.372V394.368H317.5V397.356H321.844V398.112H317.5V401.232H322.552ZM330.375 402L328.455 399.3C328.239 399.324 328.015 399.336 327.783 399.336H325.527V402H324.639V393.6H327.783C328.855 393.6 329.695 393.856 330.303 394.368C330.911 394.88 331.215 395.584 331.215 396.48C331.215 397.136 331.047 397.692 330.711 398.148C330.383 398.596 329.911 398.92 329.295 399.12L331.347 402H330.375ZM327.759 398.58C328.591 398.58 329.227 398.396 329.667 398.028C330.107 397.66 330.327 397.144 330.327 396.48C330.327 395.8 330.107 395.28 329.667 394.92C329.227 394.552 328.591 394.368 327.759 394.368H325.527V398.58H327.759ZM342.848 399.792H341.168V402H340.304V399.792H335.564V399.168L340.016 393.6H340.976L336.68 399.024H340.328V397.08H341.168V399.024H342.848V399.792ZM345.803 397.044C347.019 397.044 347.903 397.264 348.455 397.704C349.015 398.136 349.295 398.744 349.295 399.528C349.295 400.016 349.179 400.452 348.947 400.836C348.723 401.22 348.383 401.524 347.927 401.748C347.471 401.964 346.911 402.072 346.247 402.072C345.647 402.072 345.075 401.976 344.531 401.784C343.995 401.584 343.563 401.32 343.235 400.992L343.655 400.308C343.935 400.596 344.303 400.832 344.759 401.016C345.215 401.192 345.707 401.28 346.235 401.28C346.931 401.28 347.467 401.124 347.843 400.812C348.227 400.5 348.419 400.084 348.419 399.564C348.419 398.988 348.203 398.552 347.771 398.256C347.347 397.96 346.627 397.812 345.611 397.812H343.823L344.255 393.6H348.851V394.368H345.011L344.723 397.044H345.803Z" fill="#062515"/>
<rect x="0.5" y="0.5" width="420" height="445" rx="3.5" stroke="#3D9363" stroke-opacity="0.5"/>
</svg>
